<svg width="800" height="800" viewBox="0 0 800 800" fill="none" xmlns="http://www.w3.org/2000/svg">
<g clip-path="url(#clip0_1839:125)">
<rect width="800" height="800" fill="#616161"/>
<path d="M575 269C575 365.65 496.65 444 400 444C303.35 444 225 365.65 225 269C225 172.35 303.35 94 400 94C496.65 94 575 172.35 575 269Z" fill="white"/>
<path d="M760 800C760 718.844 722.072 641.011 654.558 583.625C587.045 526.239 495.478 494 400 494C304.522 494 212.955 526.239 145.442 583.625C77.9285 641.011 40 718.844 40 800L400 800H760Z" fill="white"/>
</g>
<defs>
<clipPath id="clip0_1839:125">
<rect width="800" height="800" fill="white"/>
</clipPath>
</defs>
</svg>