<svg width="1353" height="334" viewBox="0 0 1353 334" fill="none" xmlns="http://www.w3.org/2000/svg">
<path d="M0.0923441 176.9V136.42C0.0923441 93.7933 11.2857 60.52 33.6723 36.6C56.059 12.68 87.0323 0.719975 126.592 0.719975C166.152 0.719975 197.892 12.68 221.812 36.6C238.679 53.4666 247.112 78.7667 247.112 112.5H187.312C187.312 76.0067 167.839 57.76 128.892 57.76C117.239 57.76 107.272 60.06 98.9923 64.66C91.019 68.9533 85.039 74.0133 81.0523 79.84C77.0657 85.6667 73.999 94.2533 71.8523 105.6C69.7057 116.947 68.479 126.453 68.1723 134.12C67.8657 141.787 67.7123 152.06 67.7123 164.94C67.7123 177.82 67.7123 186.56 67.7123 191.16C68.019 195.453 68.479 202.66 69.0923 212.78C70.0123 222.593 71.239 229.647 72.7723 233.94C74.6123 238.233 77.0657 243.753 80.1324 250.5C83.5057 257.247 87.6457 262 92.5523 264.76C105.126 272.733 119.386 276.72 135.332 276.72C162.012 276.72 180.872 265.373 191.912 242.68V220.6H152.352V167.24H246.652V266.14C237.146 288.527 222.119 305.393 201.572 316.74C181.026 328.087 157.719 333.76 131.652 333.76C85.3457 333.76 51.7657 320.88 30.9123 295.12C10.3657 269.053 0.0923441 229.647 0.0923441 176.9ZM515.163 331H417.643C380.843 331 354.163 323.947 337.603 309.84C321.35 295.427 313.223 272.12 313.223 239.92V3.47999H377.163V239.92C377.163 252.8 380.076 261.693 385.903 266.6C391.73 271.507 402.31 273.96 417.643 273.96H515.163V331ZM814.533 331H747.833L729.433 274.42H619.493L601.553 331H534.853L639.733 31.08C644.333 20.6533 649.393 13.4466 654.913 9.45997C660.74 5.47332 667.793 3.47999 676.073 3.47999C684.353 3.47999 690.946 5.31999 695.853 8.99998C701.066 12.68 705.666 20.04 709.653 31.08L814.533 331ZM714.713 220.6L676.073 90.88L635.593 220.6H714.713ZM1080.27 234.4C1080.27 265.373 1068.93 289.753 1046.23 307.54C1023.54 325.02 994.56 333.76 959.293 333.76C931.386 333.76 904.4 326.093 878.333 310.76C865.453 302.787 854.873 291.593 846.593 277.18C838.313 262.46 834.173 245.747 834.173 227.04L892.133 224.28C892.133 240.84 899.186 253.72 913.293 262.92C927.4 272.12 943.04 276.72 960.213 276.72C998.546 276.72 1017.71 263.227 1017.71 236.24C1017.71 214.16 1004.68 201.127 978.613 197.14L925.253 191.62C898.573 187.633 877.413 178.127 861.773 163.1C846.133 148.073 838.313 126.453 838.313 98.24C838.313 70.0266 849.506 46.72 871.893 28.32C894.28 9.91998 922.493 0.719975 956.533 0.719975C990.88 0.719975 1018.48 9.45998 1039.33 26.94C1060.19 44.1133 1070.61 66.3467 1070.61 93.64L1013.57 96.4C1008.36 69.72 990.42 56.38 959.753 56.38C941.046 56.38 926.326 60.3667 915.593 68.34C905.166 76.3133 899.953 85.82 899.953 96.86C899.953 107.593 903.786 116.18 911.453 122.62C919.12 128.753 928.626 132.587 939.973 134.12L992.413 139.64C1050.99 147.613 1080.27 179.2 1080.27 234.4ZM1352.05 234.4C1352.05 265.373 1340.7 289.753 1318.01 307.54C1295.32 325.02 1266.34 333.76 1231.07 333.76C1203.16 333.76 1176.18 326.093 1150.11 310.76C1137.23 302.787 1126.65 291.593 1118.37 277.18C1110.09 262.46 1105.95 245.747 1105.95 227.04L1163.91 224.28C1163.91 240.84 1170.96 253.72 1185.07 262.92C1199.18 272.12 1214.82 276.72 1231.99 276.72C1270.32 276.72 1289.49 263.227 1289.49 236.24C1289.49 214.16 1276.46 201.127 1250.39 197.14L1197.03 191.62C1170.35 187.633 1149.19 178.127 1133.55 163.1C1117.91 148.073 1110.09 126.453 1110.09 98.24C1110.09 70.0266 1121.28 46.72 1143.67 28.32C1166.06 9.91998 1194.27 0.719975 1228.31 0.719975C1262.66 0.719975 1290.26 9.45998 1311.11 26.94C1331.96 44.1133 1342.39 66.3467 1342.39 93.64L1285.35 96.4C1280.14 69.72 1262.2 56.38 1231.53 56.38C1212.82 56.38 1198.1 60.3667 1187.37 68.34C1176.94 76.3133 1171.73 85.82 1171.73 96.86C1171.73 107.593 1175.56 116.18 1183.23 122.62C1190.9 128.753 1200.4 132.587 1211.75 134.12L1264.19 139.64C1322.76 147.613 1352.05 179.2 1352.05 234.4Z" fill="white"/>
</svg>