<svg width="1096" height="746" viewBox="0 0 1096 746" fill="none" xmlns="http://www.w3.org/2000/svg">
<line x1="683.616" y1="31.1069" x2="185.284" y2="735.107" stroke="#402597" stroke-width="35"/>
<line x1="966.852" y1="30.9444" x2="480.397" y2="734.948" stroke="#402597" stroke-width="35"/>
<line y1="-17.5" x2="614.692" y2="-17.5" transform="matrix(-0.837177 0.546931 -0.361759 -0.932271 951.248 20.9961)" stroke="#402597" stroke-width="35"/>
<path d="M674.605 37.6797L329 124.996" stroke="#402597" stroke-width="35"/>
<line y1="-17.5" x2="261.429" y2="-17.5" transform="matrix(0.504727 0.863279 -0.712666 0.701503 304.65 131.535)" stroke="#402597" stroke-width="35"/>
<line y1="-17.5" x2="354.6" y2="-17.5" transform="matrix(0.317986 0.948096 -0.870768 0.491695 951.248 20.9961)" stroke="#402597" stroke-width="35"/>
<line x1="750.489" y1="330.788" x2="902.36" y2="730.788" stroke="#402597" stroke-width="35"/>
<line x1="1079.91" y1="328.297" x2="901.906" y2="716.297" stroke="#402597" stroke-width="35"/>
<path d="M192 724.001L306.29 351.015" stroke="#402597" stroke-width="35"/>
<path d="M314.74 368.477L155 82.4961" stroke="#402597" stroke-width="35"/>
<line y1="-17.5" x2="335.739" y2="-17.5" transform="matrix(-0.446607 0.89473 -0.765565 -0.643359 149.945 56.8086)" stroke="#402597" stroke-width="35"/>
<line x1="15.7085" y1="349.513" x2="200.709" y2="726.287" stroke="#402597" stroke-width="35"/>
</svg>
